<svg width="40" height="40" viewBox="0 0 40 40" fill="none" xmlns="http://www.w3.org/2000/svg">
<g clip-path="url(#clip0_1_256)">
<g clip-path="url(#clip1_1_256)">
<path d="M29.9951 19.645C29.9951 17.5093 29.9928 15.3731 29.9991 13.2375C29.9995 13.0503 29.9484 13.0009 29.7626 13.0013C25.7345 13.0063 21.7059 13.0067 17.6778 13C17.4713 12.9996 17.4296 13.0624 17.4354 13.2527C17.4493 13.7002 17.4336 14.1486 17.4435 14.5966C17.4471 14.7456 17.3914 14.7937 17.2541 14.8008C16.7671 14.8273 16.2931 14.9337 15.8267 15.067C13.6349 15.6936 11.7703 16.889 10.0803 18.3855C10.0031 18.4537 9.97621 18.5156 10.0242 18.6175C10.1172 18.8123 10.1885 19.0175 10.2823 19.2118C10.9601 20.6136 11.8578 21.8516 13.0599 22.8512C14.2588 23.8481 15.6292 24.4707 17.1854 24.6525C17.3964 24.6772 17.4565 24.7512 17.4448 24.9586C17.426 25.3011 17.4543 25.6463 17.4345 25.9888C17.422 26.2042 17.5001 26.2433 17.6985 26.2433C21.7117 26.2379 25.725 26.2379 29.7383 26.2437C29.9416 26.2442 30.0009 26.1952 30 25.9856C29.9919 23.8715 29.9951 21.7582 29.9951 19.645ZM17.4386 21.4826C17.4386 21.5042 17.4318 21.5253 17.4242 21.5675C16.9533 21.4175 16.5678 21.1455 16.2334 20.8008C15.7854 20.3389 15.4685 19.7935 15.2459 19.1921C15.2149 19.1077 15.1763 19.0273 15.2598 18.9456C15.8137 18.4061 16.4277 17.9945 17.2406 17.9873C17.3757 17.986 17.443 18.0098 17.4422 18.1691C17.4368 19.2733 17.4395 20.378 17.4386 21.4826ZM17.4498 22.5594C17.4484 22.559 17.4471 22.559 17.4453 22.5585C17.4435 22.8481 17.435 23.138 17.4426 23.4275C17.4466 23.5761 17.4085 23.6219 17.2518 23.5972C16.1992 23.4302 15.2759 22.9863 14.4698 22.3004C13.3768 21.37 12.6312 20.1966 12.1101 18.8702C12.0585 18.7387 12.0814 18.6512 12.1662 18.5493C13.3288 17.1493 14.7974 16.2579 16.5821 15.8929C16.8079 15.8467 17.0391 15.8269 17.2671 15.7901C17.4076 15.7677 17.448 15.8225 17.4426 15.9603C17.4323 16.221 17.4323 16.4827 17.4426 16.7435C17.4484 16.8827 17.408 16.9379 17.264 16.9581C16.3357 17.0891 15.4752 17.4092 14.6825 17.9101C14.3154 18.1422 13.9738 18.4066 13.6546 18.7006C13.5815 18.7679 13.5236 18.828 13.5676 18.9488C14.1197 20.461 15.016 21.6649 16.5503 22.3036C16.6948 22.3637 16.8425 22.4149 16.9924 22.4571C17.0943 22.4858 17.1975 22.5105 17.3017 22.5316C17.3492 22.5415 17.3968 22.5505 17.4448 22.5585C17.4448 22.5572 17.4448 22.5563 17.4448 22.555C17.4462 22.5545 17.4475 22.5541 17.4493 22.5536C17.452 22.3606 17.4565 22.168 17.4579 21.975C17.4583 21.9099 17.4583 21.8453 17.4579 21.7802C17.457 21.6658 17.4978 21.6366 17.6064 21.6649C18.707 21.949 19.6847 21.6249 20.6026 21.0427C21.5852 20.4197 22.39 19.6037 23.1122 18.6997C23.2015 18.5883 23.2141 18.5134 23.114 18.3976C21.9797 17.0856 20.6277 16.1272 18.8902 15.8005C18.5024 15.7273 18.106 15.6882 17.7092 15.7327C17.5247 15.7533 17.43 15.7125 17.4556 15.4984C17.4758 15.3292 17.4677 15.155 17.4574 14.984C17.4493 14.8511 17.4884 14.808 17.6284 14.7995C18.6173 14.7393 19.581 14.8682 20.5182 15.1797C22.3653 15.7937 23.8802 16.8975 25.1568 18.3478C25.2286 18.4295 25.2856 18.4914 25.181 18.6072C24.0539 19.8577 22.8043 20.9561 21.3154 21.7636C20.1246 22.4095 18.8731 22.7556 17.5063 22.541C17.4884 22.5383 17.4682 22.5482 17.4489 22.5536C17.4498 22.5554 17.4498 22.5572 17.4498 22.5594L17.4457 22.555L17.4498 22.5594ZM17.4601 17.4613C17.4601 17.222 17.4601 17.0923 17.5113 17.0209C17.518 17.0115 17.5261 17.003 17.5346 16.9953C17.5436 16.9877 17.5535 16.981 17.5642 16.9751C17.5862 16.9635 17.6127 16.9549 17.645 16.9487C17.6612 16.9455 17.6787 16.9428 17.6976 16.9406C17.764 16.9329 17.8493 16.9307 17.9583 16.9285C19.313 16.902 20.41 17.4617 21.3244 18.429C21.4029 18.512 21.3841 18.5623 21.3069 18.627C20.8149 19.039 20.3243 19.4529 19.8355 19.8685C19.7471 19.9439 19.7125 19.8968 19.6681 19.8223C19.511 19.5601 19.3525 19.2985 19.1891 19.0404C18.8336 18.4779 18.3556 18.0874 17.6742 18.0044C17.4924 17.9824 17.4323 17.9029 17.4574 17.7292C17.4637 17.6852 17.4641 17.6408 17.4632 17.5959C17.4628 17.551 17.4601 17.5061 17.4601 17.4613ZM28.1121 21.6465C27.0689 22.3996 25.9041 22.9149 24.7057 23.3584C23.3039 23.8773 21.8639 24.2597 20.3894 24.5039C19.6977 24.6184 19.0002 24.696 18.2959 24.7082C18.0724 24.6951 17.8493 24.6767 17.6257 24.6713C17.5014 24.6682 17.4543 24.6215 17.4583 24.4958C17.4655 24.2723 17.4641 24.0479 17.4583 23.8243C17.4556 23.713 17.479 23.6659 17.6078 23.6762C20.2404 23.8849 22.4806 22.9087 24.5378 21.3807C25.0594 20.9934 25.5621 20.5826 26.0558 20.1612C26.1218 20.1051 26.1703 20.0377 26.2834 20.1042C26.8804 20.4561 27.4864 20.7927 28.0834 21.1455C28.4748 21.3776 28.4712 21.387 28.1121 21.6465Z" fill="#75B857"/>
</g>
</g>
<defs>
<clipPath id="clip0_1_256">
<rect width="40" height="40" fill="white"/>
</clipPath>
<clipPath id="clip1_1_256">
<rect width="20" height="13.2433" fill="white" transform="translate(10 13)"/>
</clipPath>
</defs>
</svg>
